<svg id="Capa_1" enable-background="new 0 0 512 512" height="512" viewBox="0 0 512 512" width="512" xmlns="http://www.w3.org/2000/svg"><path d="m482.671 160.823c-.192-9.032-.482-9.696-1.184-11.301-3.338-7.641-7.91-10.668-15.483-15.684-10.424-6.904-24.017-11.891-38.408-17.169-7.21-2.645-14.583-5.349-21.856-8.379l2.655-3.111c3.585-4.201 3.085-10.514-1.116-14.099-4.202-3.583-10.513-3.085-14.099 1.116l-6.145 7.202c-27.573-15.214-49.825-39.354-49.825-89.398 0-5.523-4.501-10-10.024-10h-142.64c-5.523 0-10 4.477-10 10 0 48.466-22.565 72.617-50.479 88.346l-5.246-6.148c-3.586-4.202-9.896-4.7-14.099-1.116-4.201 3.585-4.701 9.897-1.116 14.099l1.942 2.276c-7.375 3.221-14.854 6.127-22.167 8.968-14.102 5.479-27.42 10.653-37.628 17.414-7.574 5.017-12.146 8.044-15.485 15.686-.8 1.83-1.029 2.749-1.021 11.529.005 4.137.096 10.999.503 20.195.674 15.229 2.341 39.261 6.45 67.274 7.178 48.917 23.254 118.721 59.085 173.469 39.09 59.725 93.121 90.008 160.593 90.008 69.947 0 125.267-30.335 164.422-90.162 35.868-54.804 50.9-124.637 57.196-173.569 3.6-27.982 4.769-52.021 5.116-67.259.209-9.165.147-16.036.059-20.187zm-288.416-140.823h123.227c2.852 51.34 27.751 78.164 56.347 94.875l-31.252 36.625-9.949-9.935c-3.906-3.898-10.228-3.9-14.133 0l-42.351 42.289c-1.878 1.876-2.934 4.422-2.934 7.076s1.056 5.2 2.935 7.076l14.441 14.42-16.097 18.865-11.415-11.425c-1.876-1.878-4.421-2.933-7.074-2.933s-5.198 1.055-7.074 2.933l-11.415 11.426-16.097-18.865 14.441-14.42c1.879-1.876 2.935-4.422 2.935-7.076s-1.056-5.2-2.934-7.076l-42.351-42.289c-3.904-3.898-10.229-3.898-14.133 0l-9.949 9.935-32.184-37.717c28.845-17.133 54.052-43.916 57.016-93.784zm103.108 170.931 28.198-28.157 28.197 28.157-28.197 28.156zm-41.363 50.151 56.346 56.396c4.281 4.286 4.281 11.26 0 15.546l-56.346 56.397-56.346-56.396c-4.281-4.286-4.281-11.26 0-15.546zm-69.561-78.309 28.198 28.157-28.198 28.156-28.197-28.156zm268.512 101.662c-8.37 51.97-27.558 124.091-71.428 172.55-33.048 36.505-75.995 55.015-127.645 55.015-48.574 0-89.587-17.712-121.898-52.643-83.886-90.686-84.874-265.241-84.658-283.195.814-1.142 2.382-2.276 7.476-5.649 8.413-5.572 20.758-10.368 33.827-15.446 9.013-3.502 18.711-7.269 28.431-11.781l36.172 42.39-18.205 18.179c-1.878 1.876-2.934 4.422-2.934 7.076s1.056 5.2 2.934 7.076l42.35 42.288c1.952 1.949 4.508 2.924 7.066 2.924 2.557 0 5.114-.975 7.065-2.924l13.713-13.692 16.113 18.883-37.824 37.858c-12.068 12.08-12.068 31.735 0 43.815l63.42 63.477c1.876 1.878 4.421 2.933 7.074 2.933s5.198-1.055 7.074-2.933l63.42-63.477c12.068-12.08 12.068-31.735 0-43.815l-37.824-37.858 16.113-18.883 13.713 13.692c1.951 1.949 4.509 2.924 7.065 2.924 2.557 0 5.114-.975 7.066-2.924l42.35-42.288c1.879-1.876 2.935-4.422 2.935-7.076s-1.056-5.2-2.934-7.076l-18.204-18.179 35.392-41.476c9.757 4.356 19.497 7.929 28.544 11.248 13.259 4.863 25.782 9.456 34.251 15.066 5.295 3.506 6.779 4.594 7.567 5.784.524 9.554 1.096 54.292-7.577 108.137z"/></svg>